<mxfile host="app.diagrams.net" modified="2023-11-24T13:52:41.318Z" agent="Mozilla/5.0 (Windows NT 10.0; Win64; x64) AppleWebKit/537.36 (KHTML, like Gecko) Chrome/119.0.0.0 Safari/537.36 Edg/119.0.0.0" etag="tbFCQVSGGIHALNlUY6JI" version="22.1.3" type="github">
  <diagram id="R2lEEEUBdFMjLlhIrx00" name="Page-1">
    <mxGraphModel dx="1104" dy="1135" grid="1" gridSize="10" guides="1" tooltips="1" connect="1" arrows="1" fold="1" page="1" pageScale="1" pageWidth="850" pageHeight="1100" math="0" shadow="0" extFonts="Permanent Marker^https://fonts.googleapis.com/css?family=Permanent+Marker">
      <root>
        <mxCell id="0" />
        <mxCell id="1" parent="0" />
        <mxCell id="ex15Wu89XBBNbvbOtpgM-51" value="예금계좌" style="whiteSpace=wrap;html=1;align=center;" parent="1" vertex="1">
          <mxGeometry x="170" y="650" width="220" height="110" as="geometry" />
        </mxCell>
        <mxCell id="ex15Wu89XBBNbvbOtpgM-52" value="대출계좌" style="whiteSpace=wrap;html=1;align=center;" parent="1" vertex="1">
          <mxGeometry x="160" y="200" width="220" height="110" as="geometry" />
        </mxCell>
        <mxCell id="ex15Wu89XBBNbvbOtpgM-55" value="은행정보" style="shape=ext;margin=3;double=1;whiteSpace=wrap;html=1;align=center;" parent="1" vertex="1">
          <mxGeometry x="800" y="670" width="190" height="100" as="geometry" />
        </mxCell>
        <mxCell id="ex15Wu89XBBNbvbOtpgM-56" value="고객" style="whiteSpace=wrap;html=1;align=center;" parent="1" vertex="1">
          <mxGeometry x="790" y="210" width="210" height="110" as="geometry" />
        </mxCell>
        <mxCell id="ex15Wu89XBBNbvbOtpgM-57" value="은행관계" style="shape=rhombus;double=1;perimeter=rhombusPerimeter;whiteSpace=wrap;html=1;align=center;" parent="1" vertex="1">
          <mxGeometry x="820" y="430" width="150" height="90" as="geometry" />
        </mxCell>
        <mxCell id="ex15Wu89XBBNbvbOtpgM-58" value="" style="shape=link;html=1;rounded=0;exitX=0.5;exitY=1;exitDx=0;exitDy=0;entryX=0.5;entryY=0;entryDx=0;entryDy=0;" parent="1" source="ex15Wu89XBBNbvbOtpgM-56" target="ex15Wu89XBBNbvbOtpgM-57" edge="1">
          <mxGeometry relative="1" as="geometry">
            <mxPoint x="530" y="420" as="sourcePoint" />
            <mxPoint x="690" y="420" as="targetPoint" />
          </mxGeometry>
        </mxCell>
        <mxCell id="ex15Wu89XBBNbvbOtpgM-59" value="M" style="resizable=0;html=1;whiteSpace=wrap;align=left;verticalAlign=bottom;" parent="ex15Wu89XBBNbvbOtpgM-58" connectable="0" vertex="1">
          <mxGeometry x="-1" relative="1" as="geometry" />
        </mxCell>
        <mxCell id="ex15Wu89XBBNbvbOtpgM-60" value="N" style="resizable=0;html=1;whiteSpace=wrap;align=right;verticalAlign=bottom;" parent="ex15Wu89XBBNbvbOtpgM-58" connectable="0" vertex="1">
          <mxGeometry x="1" relative="1" as="geometry" />
        </mxCell>
        <mxCell id="ex15Wu89XBBNbvbOtpgM-61" value="" style="shape=link;html=1;rounded=0;exitX=0.5;exitY=0;exitDx=0;exitDy=0;entryX=0.5;entryY=1;entryDx=0;entryDy=0;" parent="1" source="ex15Wu89XBBNbvbOtpgM-55" target="ex15Wu89XBBNbvbOtpgM-57" edge="1">
          <mxGeometry relative="1" as="geometry">
            <mxPoint x="530" y="420" as="sourcePoint" />
            <mxPoint x="690" y="420" as="targetPoint" />
          </mxGeometry>
        </mxCell>
        <mxCell id="ex15Wu89XBBNbvbOtpgM-62" value="M" style="resizable=0;html=1;whiteSpace=wrap;align=left;verticalAlign=bottom;" parent="ex15Wu89XBBNbvbOtpgM-61" connectable="0" vertex="1">
          <mxGeometry x="-1" relative="1" as="geometry" />
        </mxCell>
        <mxCell id="ex15Wu89XBBNbvbOtpgM-63" value="N" style="resizable=0;html=1;whiteSpace=wrap;align=right;verticalAlign=bottom;" parent="ex15Wu89XBBNbvbOtpgM-61" connectable="0" vertex="1">
          <mxGeometry x="1" relative="1" as="geometry" />
        </mxCell>
        <mxCell id="ex15Wu89XBBNbvbOtpgM-64" value="" style="endArrow=none;html=1;rounded=0;entryX=0.25;entryY=1;entryDx=0;entryDy=0;exitX=1;exitY=0;exitDx=0;exitDy=0;" parent="1" source="ex15Wu89XBBNbvbOtpgM-65" target="ex15Wu89XBBNbvbOtpgM-55" edge="1">
          <mxGeometry relative="1" as="geometry">
            <mxPoint x="790" y="850" as="sourcePoint" />
            <mxPoint x="690" y="420" as="targetPoint" />
          </mxGeometry>
        </mxCell>
        <mxCell id="ex15Wu89XBBNbvbOtpgM-65" value="지점명" style="ellipse;whiteSpace=wrap;html=1;align=center;" parent="1" vertex="1">
          <mxGeometry x="720" y="860" width="100" height="40" as="geometry" />
        </mxCell>
        <mxCell id="ex15Wu89XBBNbvbOtpgM-66" value="" style="endArrow=none;html=1;rounded=0;exitX=0.5;exitY=1;exitDx=0;exitDy=0;entryX=0.5;entryY=0;entryDx=0;entryDy=0;" parent="1" source="ex15Wu89XBBNbvbOtpgM-55" target="ex15Wu89XBBNbvbOtpgM-67" edge="1">
          <mxGeometry relative="1" as="geometry">
            <mxPoint x="540" y="790" as="sourcePoint" />
            <mxPoint x="895" y="850" as="targetPoint" />
          </mxGeometry>
        </mxCell>
        <mxCell id="ex15Wu89XBBNbvbOtpgM-67" value="안내직원" style="ellipse;whiteSpace=wrap;html=1;align=center;" parent="1" vertex="1">
          <mxGeometry x="845" y="860" width="100" height="40" as="geometry" />
        </mxCell>
        <mxCell id="ex15Wu89XBBNbvbOtpgM-68" value="" style="endArrow=none;html=1;rounded=0;exitX=0.75;exitY=1;exitDx=0;exitDy=0;" parent="1" source="ex15Wu89XBBNbvbOtpgM-55" target="ex15Wu89XBBNbvbOtpgM-69" edge="1">
          <mxGeometry relative="1" as="geometry">
            <mxPoint x="570" y="460" as="sourcePoint" />
            <mxPoint x="1000" y="840" as="targetPoint" />
          </mxGeometry>
        </mxCell>
        <mxCell id="ex15Wu89XBBNbvbOtpgM-69" value="고객이름" style="ellipse;whiteSpace=wrap;html=1;align=center;" parent="1" vertex="1">
          <mxGeometry x="960" y="860" width="100" height="40" as="geometry" />
        </mxCell>
        <mxCell id="ex15Wu89XBBNbvbOtpgM-71" value="고객 계좌" style="shape=rhombus;perimeter=rhombusPerimeter;whiteSpace=wrap;html=1;align=center;" parent="1" vertex="1">
          <mxGeometry x="480" y="420" width="180" height="110" as="geometry" />
        </mxCell>
        <mxCell id="ex15Wu89XBBNbvbOtpgM-72" value="" style="shape=link;html=1;rounded=0;entryX=0;entryY=1;entryDx=0;entryDy=0;exitX=1;exitY=0;exitDx=0;exitDy=0;" parent="1" source="ex15Wu89XBBNbvbOtpgM-71" target="ex15Wu89XBBNbvbOtpgM-56" edge="1">
          <mxGeometry relative="1" as="geometry">
            <mxPoint x="610" y="447.5" as="sourcePoint" />
            <mxPoint x="785" y="320" as="targetPoint" />
          </mxGeometry>
        </mxCell>
        <mxCell id="ex15Wu89XBBNbvbOtpgM-73" value="M" style="resizable=0;html=1;whiteSpace=wrap;align=left;verticalAlign=bottom;" parent="ex15Wu89XBBNbvbOtpgM-72" connectable="0" vertex="1">
          <mxGeometry x="-1" relative="1" as="geometry">
            <mxPoint x="-4" y="-12" as="offset" />
          </mxGeometry>
        </mxCell>
        <mxCell id="ex15Wu89XBBNbvbOtpgM-74" value="N" style="resizable=0;html=1;whiteSpace=wrap;align=right;verticalAlign=bottom;" parent="ex15Wu89XBBNbvbOtpgM-72" connectable="0" vertex="1">
          <mxGeometry x="1" relative="1" as="geometry" />
        </mxCell>
        <mxCell id="ex15Wu89XBBNbvbOtpgM-75" value="" style="endArrow=none;html=1;rounded=0;exitX=1;exitY=1;exitDx=0;exitDy=0;entryX=0;entryY=0;entryDx=0;entryDy=0;" parent="1" source="ex15Wu89XBBNbvbOtpgM-52" target="ex15Wu89XBBNbvbOtpgM-71" edge="1">
          <mxGeometry relative="1" as="geometry">
            <mxPoint x="570" y="460" as="sourcePoint" />
            <mxPoint x="730" y="460" as="targetPoint" />
          </mxGeometry>
        </mxCell>
        <mxCell id="ex15Wu89XBBNbvbOtpgM-76" value="N" style="resizable=0;html=1;whiteSpace=wrap;align=right;verticalAlign=bottom;" parent="ex15Wu89XBBNbvbOtpgM-75" connectable="0" vertex="1">
          <mxGeometry x="1" relative="1" as="geometry" />
        </mxCell>
        <mxCell id="ex15Wu89XBBNbvbOtpgM-78" value="" style="endArrow=none;html=1;rounded=0;exitX=1;exitY=0;exitDx=0;exitDy=0;entryX=0;entryY=1;entryDx=0;entryDy=0;" parent="1" source="ex15Wu89XBBNbvbOtpgM-51" target="ex15Wu89XBBNbvbOtpgM-71" edge="1">
          <mxGeometry relative="1" as="geometry">
            <mxPoint x="570" y="460" as="sourcePoint" />
            <mxPoint x="730" y="460" as="targetPoint" />
          </mxGeometry>
        </mxCell>
        <mxCell id="ex15Wu89XBBNbvbOtpgM-79" value="N" style="resizable=0;html=1;whiteSpace=wrap;align=right;verticalAlign=bottom;" parent="ex15Wu89XBBNbvbOtpgM-78" connectable="0" vertex="1">
          <mxGeometry x="1" relative="1" as="geometry" />
        </mxCell>
        <mxCell id="ex15Wu89XBBNbvbOtpgM-80" value="" style="endArrow=none;html=1;rounded=0;entryX=0.25;entryY=0;entryDx=0;entryDy=0;exitX=0.75;exitY=1;exitDx=0;exitDy=0;exitPerimeter=0;" parent="1" source="ex15Wu89XBBNbvbOtpgM-81" target="ex15Wu89XBBNbvbOtpgM-56" edge="1">
          <mxGeometry relative="1" as="geometry">
            <mxPoint x="770" y="150" as="sourcePoint" />
            <mxPoint x="730" y="460" as="targetPoint" />
          </mxGeometry>
        </mxCell>
        <mxCell id="ex15Wu89XBBNbvbOtpgM-81" value="이름" style="ellipse;whiteSpace=wrap;html=1;align=center;" parent="1" vertex="1">
          <mxGeometry x="740" y="120" width="100" height="40" as="geometry" />
        </mxCell>
        <mxCell id="ex15Wu89XBBNbvbOtpgM-83" value="계좌" style="ellipse;shape=doubleEllipse;margin=3;whiteSpace=wrap;html=1;align=center;" parent="1" vertex="1">
          <mxGeometry x="845" y="100" width="100" height="40" as="geometry" />
        </mxCell>
        <mxCell id="ex15Wu89XBBNbvbOtpgM-84" value="" style="endArrow=none;html=1;rounded=0;exitX=0.5;exitY=1;exitDx=0;exitDy=0;entryX=0.5;entryY=0;entryDx=0;entryDy=0;" parent="1" source="ex15Wu89XBBNbvbOtpgM-83" target="ex15Wu89XBBNbvbOtpgM-56" edge="1">
          <mxGeometry relative="1" as="geometry">
            <mxPoint x="570" y="460" as="sourcePoint" />
            <mxPoint x="730" y="460" as="targetPoint" />
          </mxGeometry>
        </mxCell>
        <mxCell id="ex15Wu89XBBNbvbOtpgM-85" value="" style="endArrow=none;html=1;rounded=0;exitX=0.75;exitY=0;exitDx=0;exitDy=0;entryX=0.24;entryY=0.96;entryDx=0;entryDy=0;entryPerimeter=0;" parent="1" source="ex15Wu89XBBNbvbOtpgM-56" target="ex15Wu89XBBNbvbOtpgM-87" edge="1">
          <mxGeometry relative="1" as="geometry">
            <mxPoint x="570" y="460" as="sourcePoint" />
            <mxPoint x="998.36344662077" y="168.0304611493582" as="targetPoint" />
          </mxGeometry>
        </mxCell>
        <mxCell id="ex15Wu89XBBNbvbOtpgM-87" value="주민번호" style="ellipse;whiteSpace=wrap;html=1;align=center;fontStyle=4;" parent="1" vertex="1">
          <mxGeometry x="960" y="120" width="100" height="40" as="geometry" />
        </mxCell>
        <mxCell id="ex15Wu89XBBNbvbOtpgM-88" value="예금금액" style="ellipse;whiteSpace=wrap;html=1;align=center;" parent="1" vertex="1">
          <mxGeometry x="230" y="820" width="100" height="40" as="geometry" />
        </mxCell>
        <mxCell id="ex15Wu89XBBNbvbOtpgM-89" value="&lt;u&gt;계좌번호&lt;/u&gt;" style="ellipse;whiteSpace=wrap;html=1;align=center;" parent="1" vertex="1">
          <mxGeometry x="110" y="820" width="100" height="50" as="geometry" />
        </mxCell>
        <mxCell id="ex15Wu89XBBNbvbOtpgM-90" value="잔액" style="ellipse;whiteSpace=wrap;html=1;align=center;" parent="1" vertex="1">
          <mxGeometry x="360" y="820" width="100" height="40" as="geometry" />
        </mxCell>
        <mxCell id="ex15Wu89XBBNbvbOtpgM-91" value="최근 출입금 날짜" style="ellipse;whiteSpace=wrap;html=1;align=center;" parent="1" vertex="1">
          <mxGeometry x="227.5" y="90" width="100" height="40" as="geometry" />
        </mxCell>
        <mxCell id="ex15Wu89XBBNbvbOtpgM-92" value="&lt;u&gt;계좌번호&lt;/u&gt;" style="ellipse;whiteSpace=wrap;html=1;align=center;" parent="1" vertex="1">
          <mxGeometry x="122.5" y="90" width="100" height="40" as="geometry" />
        </mxCell>
        <mxCell id="ex15Wu89XBBNbvbOtpgM-93" value="대출잔액" style="ellipse;whiteSpace=wrap;html=1;align=center;" parent="1" vertex="1">
          <mxGeometry x="337.5" y="90" width="100" height="40" as="geometry" />
        </mxCell>
        <mxCell id="ex15Wu89XBBNbvbOtpgM-95" value="" style="endArrow=none;html=1;rounded=0;exitX=0.5;exitY=0;exitDx=0;exitDy=0;entryX=0.75;entryY=1;entryDx=0;entryDy=0;" parent="1" source="ex15Wu89XBBNbvbOtpgM-90" target="ex15Wu89XBBNbvbOtpgM-51" edge="1">
          <mxGeometry relative="1" as="geometry">
            <mxPoint x="250" y="460" as="sourcePoint" />
            <mxPoint x="410" y="460" as="targetPoint" />
          </mxGeometry>
        </mxCell>
        <mxCell id="ex15Wu89XBBNbvbOtpgM-96" value="" style="endArrow=none;html=1;rounded=0;exitX=0.5;exitY=0;exitDx=0;exitDy=0;entryX=0.5;entryY=1;entryDx=0;entryDy=0;" parent="1" source="ex15Wu89XBBNbvbOtpgM-88" target="ex15Wu89XBBNbvbOtpgM-51" edge="1">
          <mxGeometry relative="1" as="geometry">
            <mxPoint x="250" y="460" as="sourcePoint" />
            <mxPoint x="410" y="460" as="targetPoint" />
          </mxGeometry>
        </mxCell>
        <mxCell id="ex15Wu89XBBNbvbOtpgM-97" value="" style="endArrow=none;html=1;rounded=0;exitX=0.5;exitY=0;exitDx=0;exitDy=0;entryX=0.25;entryY=1;entryDx=0;entryDy=0;" parent="1" source="ex15Wu89XBBNbvbOtpgM-89" target="ex15Wu89XBBNbvbOtpgM-51" edge="1">
          <mxGeometry relative="1" as="geometry">
            <mxPoint x="250" y="460" as="sourcePoint" />
            <mxPoint x="410" y="460" as="targetPoint" />
          </mxGeometry>
        </mxCell>
        <mxCell id="ex15Wu89XBBNbvbOtpgM-98" value="" style="endArrow=none;html=1;rounded=0;exitX=0.5;exitY=1;exitDx=0;exitDy=0;entryX=0.75;entryY=0;entryDx=0;entryDy=0;" parent="1" source="ex15Wu89XBBNbvbOtpgM-93" target="ex15Wu89XBBNbvbOtpgM-52" edge="1">
          <mxGeometry relative="1" as="geometry">
            <mxPoint x="250" y="460" as="sourcePoint" />
            <mxPoint x="410" y="460" as="targetPoint" />
          </mxGeometry>
        </mxCell>
        <mxCell id="ex15Wu89XBBNbvbOtpgM-99" value="" style="endArrow=none;html=1;rounded=0;exitX=0.5;exitY=1;exitDx=0;exitDy=0;entryX=0.5;entryY=0;entryDx=0;entryDy=0;" parent="1" source="ex15Wu89XBBNbvbOtpgM-91" target="ex15Wu89XBBNbvbOtpgM-52" edge="1">
          <mxGeometry relative="1" as="geometry">
            <mxPoint x="250" y="460" as="sourcePoint" />
            <mxPoint x="270" y="210" as="targetPoint" />
          </mxGeometry>
        </mxCell>
        <mxCell id="ex15Wu89XBBNbvbOtpgM-100" value="" style="endArrow=none;html=1;rounded=0;exitX=0.5;exitY=1;exitDx=0;exitDy=0;entryX=0.214;entryY=0;entryDx=0;entryDy=0;entryPerimeter=0;" parent="1" source="ex15Wu89XBBNbvbOtpgM-92" target="ex15Wu89XBBNbvbOtpgM-52" edge="1">
          <mxGeometry relative="1" as="geometry">
            <mxPoint x="90" y="160" as="sourcePoint" />
            <mxPoint x="250" y="160" as="targetPoint" />
          </mxGeometry>
        </mxCell>
        <mxCell id="ex15Wu89XBBNbvbOtpgM-101" value="주소" style="ellipse;whiteSpace=wrap;html=1;align=center;" parent="1" vertex="1">
          <mxGeometry x="1070" y="130" width="100" height="40" as="geometry" />
        </mxCell>
        <mxCell id="ex15Wu89XBBNbvbOtpgM-102" value="" style="endArrow=none;html=1;rounded=0;exitX=1;exitY=0;exitDx=0;exitDy=0;entryX=0.5;entryY=1;entryDx=0;entryDy=0;" parent="1" source="ex15Wu89XBBNbvbOtpgM-56" target="ex15Wu89XBBNbvbOtpgM-101" edge="1">
          <mxGeometry relative="1" as="geometry">
            <mxPoint x="1050" y="280" as="sourcePoint" />
            <mxPoint x="1210" y="280" as="targetPoint" />
          </mxGeometry>
        </mxCell>
        <mxCell id="ex15Wu89XBBNbvbOtpgM-104" value="" style="endArrow=none;html=1;rounded=0;exitX=1;exitY=0.5;exitDx=0;exitDy=0;entryX=0;entryY=0.5;entryDx=0;entryDy=0;" parent="1" source="ex15Wu89XBBNbvbOtpgM-55" edge="1">
          <mxGeometry relative="1" as="geometry">
            <mxPoint x="1000" y="630" as="sourcePoint" />
            <mxPoint x="1070" y="760" as="targetPoint" />
          </mxGeometry>
        </mxCell>
        <mxCell id="ex15Wu89XBBNbvbOtpgM-105" value="고객이름" style="ellipse;whiteSpace=wrap;html=1;align=center;fontStyle=4;" parent="1" vertex="1">
          <mxGeometry x="1060" y="750" width="100" height="40" as="geometry" />
        </mxCell>
      </root>
    </mxGraphModel>
  </diagram>
</mxfile>
